<?xml version="1.0" standalone="no"?>
<!DOCTYPE svg PUBLIC "-//W3C//DTD SVG 20010904//EN"
 "http://www.w3.org/TR/2001/REC-SVG-20010904/DTD/svg10.dtd">
<svg version="1.0" xmlns="http://www.w3.org/2000/svg"
 width="961.000000pt" height="961.000000pt" viewBox="0 0 961.000000 961.000000"
 preserveAspectRatio="xMidYMid meet">
<metadata>
Created by potrace 1.14, written by Peter Selinger 2001-2017
</metadata>
<g transform="translate(0.000000,961.000000) scale(0.100000,-0.100000)"
fill="#000000" stroke="none">
<path d="M6018 9132 c-28 -33 -62 -82 -70 -102 -3 -8 -31 -28 -62 -44 -31 -16
-56 -33 -56 -38 0 -4 -6 -8 -14 -8 -7 0 -26 -13 -43 -28 -16 -16 -41 -32 -54
-35 -13 -3 -41 -22 -62 -42 -20 -19 -41 -35 -46 -35 -4 0 -51 -42 -104 -93
-88 -86 -157 -177 -157 -206 0 -7 -8 -21 -18 -32 -11 -11 -25 -39 -32 -62 -8
-23 -25 -54 -39 -69 -14 -14 -26 -30 -26 -35 -1 -4 -4 -21 -8 -37 -8 -28 17
-126 31 -126 20 0 62 -141 62 -206 0 -44 5 -62 25 -88 14 -18 25 -37 25 -42 0
-11 77 -84 88 -84 12 0 32 -46 32 -73 0 -12 -9 -33 -20 -47 -11 -14 -20 -32
-20 -40 0 -9 -18 -72 -40 -140 -22 -69 -43 -143 -46 -165 -12 -90 -36 -222
-47 -255 -6 -19 -11 -39 -12 -45 -3 -37 -18 -95 -25 -95 -4 0 -48 -41 -98 -90
-88 -89 -89 -91 -91 -142 -1 -45 3 -53 30 -77 83 -70 82 -69 75 -122 -4 -27
-17 -93 -31 -146 -13 -54 -27 -120 -30 -148 -3 -27 -8 -59 -10 -71 -3 -12 -7
-39 -10 -60 -3 -21 -8 -46 -11 -54 -7 -20 -24 -106 -30 -155 -3 -22 -9 -53
-15 -69 -5 -16 -9 -42 -9 -57 0 -30 -16 -47 -31 -32 -5 5 -11 31 -13 59 -2 27
-6 63 -10 79 -6 34 -15 92 -21 150 -3 22 -8 65 -11 95 -4 30 -6 82 -5 115 3
62 2 299 -1 395 -3 109 22 169 76 186 12 4 45 33 74 65 30 33 58 59 63 59 18
0 48 35 53 63 2 14 8 32 12 39 16 26 14 81 -5 136 -10 31 -24 75 -30 97 -13
50 -87 130 -128 139 -17 4 -39 16 -49 27 -9 10 -22 19 -27 19 -6 0 -17 7 -26
15 -91 86 -101 92 -160 105 -38 8 -79 10 -108 5 -27 -4 -76 -9 -111 -11 -34
-2 -80 -8 -102 -13 -31 -7 -43 -5 -58 8 -56 49 -62 105 -12 116 16 3 40 17 55
31 14 13 30 24 34 24 5 0 13 6 19 13 6 7 30 14 54 15 33 2 49 9 71 32 28 31
34 54 17 65 -5 3 -10 21 -10 39 0 57 -91 115 -159 101 -20 -4 -65 -9 -101 -12
-58 -3 -86 -14 -246 -94 -177 -87 -213 -111 -218 -142 -4 -27 -50 -111 -78
-142 -16 -16 -28 -33 -28 -38 0 -4 -36 -44 -80 -89 -44 -46 -80 -88 -80 -95 0
-17 -57 -17 -93 0 -15 6 -27 17 -27 23 0 7 -18 30 -40 53 -22 22 -40 45 -40
49 0 5 -12 19 -26 33 -29 27 -69 103 -79 152 -4 18 -15 40 -24 51 -13 15 -16
47 -18 187 -3 154 -1 172 18 209 12 22 25 40 29 40 17 0 44 80 51 155 4 44 14
94 23 110 13 27 14 37 2 82 -11 43 -26 63 -82 117 -38 36 -72 66 -77 66 -4 0
-19 11 -33 25 -29 29 -96 49 -138 40 -17 -3 -51 -9 -76 -13 -25 -5 -56 -14
-70 -22 -24 -13 -66 -23 -160 -36 -25 -4 -62 -15 -83 -26 -22 -11 -51 -19 -65
-18 -50 4 -60 0 -91 -32 -29 -29 -31 -37 -31 -100 0 -47 -5 -77 -17 -96 -23
-36 -93 -103 -129 -123 -16 -8 -39 -35 -51 -60 -73 -152 -82 -186 -63 -245 6
-18 13 -47 15 -63 2 -16 11 -45 19 -66 9 -21 16 -48 16 -61 0 -15 18 -43 49
-75 l49 -50 213 2 c190 3 220 1 264 -16 36 -13 79 -19 156 -19 l106 -2 55 -41
c55 -42 138 -88 138 -77 0 3 16 -11 35 -30 19 -20 35 -41 35 -46 0 -6 3 -10 8
-10 4 0 20 -21 37 -48 16 -26 44 -61 62 -78 18 -17 33 -36 33 -43 0 -6 5 -11
10 -11 6 0 10 -9 10 -20 0 -11 5 -20 10 -20 6 0 10 -6 10 -14 0 -7 23 -37 50
-67 28 -30 50 -57 50 -62 0 -9 8 -19 67 -83 23 -25 54 -70 69 -101 16 -30 48
-71 72 -91 80 -67 187 -177 202 -207 8 -16 18 -32 21 -35 7 -6 33 -52 35 -62
1 -5 2 -12 3 -17 0 -5 16 -24 34 -42 17 -19 39 -47 47 -62 8 -16 22 -33 32
-38 10 -5 18 -16 18 -23 0 -8 7 -20 16 -27 46 -38 86 -145 66 -176 -8 -11
-102 -45 -102 -37 0 3 -15 -5 -32 -18 -24 -16 -45 -22 -77 -21 -24 1 -47 5
-50 10 -15 21 -96 55 -152 64 -42 7 -76 20 -111 44 -28 20 -62 38 -77 42 -45
11 -88 44 -132 103 -15 20 -49 47 -75 60 -27 14 -51 28 -54 31 -3 3 -14 9 -25
13 -11 3 -35 19 -53 36 -23 21 -43 30 -67 30 -36 0 -42 10 -44 70 0 36 -21
144 -43 227 -10 39 -17 75 -16 80 9 32 -18 75 -95 150 -81 79 -88 83 -140 89
l-55 7 -25 -39 c-14 -22 -47 -61 -75 -87 -50 -49 -63 -77 -93 -199 -6 -27 -17
-48 -23 -48 -12 0 -46 -118 -46 -159 0 -21 -3 -22 -27 -15 -16 5 -64 9 -108 9
-61 0 -79 -3 -77 -13 1 -8 -2 -11 -7 -8 -5 4 -14 -1 -19 -10 -5 -9 -21 -18
-35 -19 -14 -2 -31 -6 -37 -10 -5 -3 -22 -9 -37 -11 -15 -3 -33 -10 -40 -16
-7 -6 -13 -7 -13 -3 0 4 -16 -3 -36 -14 -20 -12 -39 -20 -41 -17 -5 4 -18 -6
-72 -54 -27 -25 -30 -33 -27 -77 2 -26 1 -53 -1 -60 -5 -13 -68 -9 -138 7 -22
6 -51 12 -65 14 -39 8 -70 15 -92 22 -31 9 -40 -15 -17 -47 27 -38 153 -105
210 -112 69 -9 134 -53 160 -107 12 -25 30 -53 40 -63 26 -24 24 -61 -3 -79
-18 -12 -20 -18 -11 -29 6 -8 24 -16 39 -17 32 -2 40 -12 55 -65 6 -22 25 -54
42 -72 18 -19 43 -47 57 -64 14 -17 45 -37 71 -46 33 -11 64 -34 103 -75 61
-64 61 -63 46 -91 -8 -15 -21 -19 -60 -19 -26 0 -50 3 -52 8 -5 12 -86 72 -97
72 -6 0 -11 5 -11 10 0 6 -17 10 -37 10 -32 0 -45 -8 -82 -45 l-43 -45 6 -63
c4 -45 2 -69 -8 -83 -13 -18 -26 -81 -31 -154 -2 -19 -7 -55 -13 -80 -9 -39
-8 -49 10 -78 15 -25 21 -54 23 -112 2 -44 6 -84 9 -89 3 -5 10 -50 15 -99 8
-79 25 -128 51 -152 25 -23 41 -70 46 -133 l6 -74 -58 -38 c-54 -36 -65 -40
-132 -41 -50 -1 -80 -7 -99 -19 -28 -19 -83 -24 -288 -30 -112 -3 -155 -9
-194 -29 -15 -8 -48 -17 -75 -19 -26 -3 -58 -13 -71 -21 -14 -9 -29 -16 -35
-16 -6 0 -20 -9 -32 -20 -12 -11 -28 -20 -35 -20 -17 0 -79 -35 -105 -60 -12
-11 -27 -20 -32 -20 -6 0 -74 -64 -152 -143 -129 -130 -140 -145 -143 -182 -1
-22 -15 -67 -31 -100 -30 -64 -42 -125 -45 -220 -1 -46 -10 -77 -38 -135 -20
-41 -38 -86 -41 -100 -5 -24 -54 -84 -75 -92 -5 -1 -11 -12 -13 -23 -5 -30 39
-31 103 -2 69 32 112 43 177 46 62 3 267 -42 332 -73 40 -19 62 -21 210 -21
l165 0 99 49 c83 41 112 62 191 140 72 71 94 99 99 127 6 34 89 206 121 252 8
12 15 36 15 55 0 48 29 173 47 202 9 14 43 51 75 83 55 54 59 60 51 90 -20 82
14 161 75 173 52 10 110 -4 143 -34 17 -15 34 -27 37 -28 55 -5 127 -32 146
-54 37 -45 61 -53 134 -45 62 7 69 10 109 53 24 25 55 70 70 101 14 31 34 65
44 76 9 11 22 40 29 65 6 25 20 64 31 87 10 24 19 49 19 57 0 39 207 125 342
142 24 3 76 17 117 31 41 13 95 26 120 29 25 2 61 8 79 13 31 9 66 7 107 -6
11 -4 25 -7 30 -8 14 -1 8 -73 -7 -88 -7 -7 -29 -23 -48 -36 -19 -13 -137
-126 -261 -251 -124 -125 -247 -244 -273 -264 -26 -20 -85 -73 -129 -119 -90
-91 -129 -110 -245 -122 -35 -3 -75 -10 -88 -15 -14 -6 -35 -12 -47 -15 -92
-20 -117 -28 -128 -41 -6 -8 -20 -14 -31 -14 -21 0 -30 -8 -133 -124 -38 -43
-74 -90 -79 -104 -5 -15 -17 -35 -28 -46 -10 -11 -18 -26 -18 -33 0 -7 -6 -13
-14 -13 -18 0 -34 -20 -40 -50 -2 -14 -12 -61 -21 -105 -21 -101 -17 -240 8
-279 10 -14 15 -26 11 -26 -4 0 -1 -6 5 -14 7 -8 15 -39 18 -68 4 -38 12 -61
31 -80 30 -33 35 -61 17 -105 -7 -17 -13 -52 -13 -77 1 -32 -5 -53 -18 -67
-19 -22 -19 -22 3 -10 24 12 93 93 93 108 0 17 30 37 59 41 14 1 40 7 56 12
17 6 58 10 92 9 60 -2 60 -2 119 55 33 30 64 56 69 56 17 0 112 103 120 130 4
14 16 32 25 40 10 8 26 33 36 55 24 51 55 57 95 19 42 -40 59 -84 59 -156 0
-34 6 -74 13 -88 7 -14 21 -50 30 -80 20 -64 80 -134 133 -156 19 -8 52 -31
74 -52 32 -29 41 -47 46 -83 6 -44 4 -49 -33 -90 -27 -30 -42 -57 -46 -84 -4
-22 -9 -55 -13 -72 -9 -43 16 -45 53 -3 14 17 31 30 38 30 12 0 44 96 47 143
2 16 8 33 15 39 7 6 13 17 13 24 0 19 55 18 74 -2 21 -20 20 -26 -9 -125 -43
-142 -47 -153 -70 -181 -12 -14 -25 -45 -29 -68 -4 -23 -13 -55 -22 -71 -8
-16 -17 -53 -20 -82 -3 -28 -11 -81 -18 -117 -6 -36 -9 -76 -5 -90 10 -36 11
-238 1 -244 -14 -8 -35 -142 -28 -172 4 -15 16 -40 26 -54 11 -15 22 -47 26
-71 4 -24 17 -55 29 -69 13 -14 33 -43 45 -65 30 -55 76 -117 132 -178 26 -29
48 -57 48 -64 0 -6 11 -24 24 -40 42 -51 58 -94 61 -167 2 -39 3 -78 4 -86 1
-8 17 -33 36 -54 19 -22 35 -43 35 -47 0 -4 17 -10 37 -14 39 -7 87 -50 132
-116 22 -33 28 -36 73 -36 l48 1 0 38 c0 21 -5 38 -11 38 -5 0 -8 4 -5 9 3 5
-2 19 -12 32 -35 49 -52 88 -52 122 0 42 6 47 43 40 23 -5 29 -14 43 -62 9
-31 23 -68 30 -83 8 -15 15 -31 15 -35 0 -5 8 -16 16 -25 9 -10 14 -18 10 -18
-3 0 -2 -12 2 -27 6 -23 13 -27 44 -28 20 0 38 4 38 10 5 42 -4 114 -18 139
-8 17 -25 49 -36 71 -11 22 -30 50 -42 63 -23 22 -28 63 -36 292 -1 14 2 59 6
101 7 72 6 80 -21 135 -16 33 -32 61 -36 64 -4 3 -10 25 -14 49 -7 44 -9 47
-151 182 -69 67 -163 178 -163 193 0 4 -13 21 -29 38 -16 17 -32 43 -35 58 -2
15 -29 50 -59 79 -35 34 -57 64 -61 84 -4 18 -18 50 -33 72 -30 46 -38 109
-18 148 7 13 26 39 43 56 16 17 32 45 36 61 3 17 6 33 7 38 1 4 10 30 20 59 9
28 16 53 14 55 -11 11 35 49 64 53 18 2 41 10 50 18 26 23 61 31 61 14 0 -8
14 -30 30 -48 46 -51 50 -57 50 -69 0 -5 5 -10 10 -10 18 0 11 -71 -10 -99
-30 -43 -31 -74 -5 -113 26 -38 107 -83 164 -92 58 -8 84 -35 88 -90 3 -37 10
-53 31 -72 15 -13 32 -24 38 -24 13 0 122 -56 142 -72 8 -7 46 -9 109 -5 53 3
105 1 114 -4 10 -5 20 -22 24 -39 4 -16 12 -30 18 -30 21 0 89 85 93 117 1 7
23 33 48 58 25 24 46 48 47 52 0 4 2 27 4 50 2 23 8 50 12 60 10 20 10 28 -1
58 -4 11 -13 33 -18 48 -14 38 -99 121 -140 138 -39 16 -29 7 -163 138 -156
153 -175 177 -175 211 0 16 -9 51 -19 78 -11 27 -18 58 -17 68 4 22 -13 64
-26 64 -4 0 -8 6 -8 13 0 6 -13 26 -29 43 -47 50 -54 122 -24 244 14 58 42
115 65 130 15 11 77 192 79 233 2 23 10 53 18 67 9 13 15 25 14 27 -13 15 4
24 40 21 41 -3 42 -4 42 -38 0 -19 -4 -47 -8 -62 -6 -24 -2 -33 33 -67 22 -21
56 -46 75 -55 19 -9 37 -21 40 -26 3 -6 20 -10 36 -10 38 0 63 -13 107 -56 41
-40 59 -42 97 -12 20 16 39 21 77 19 47 -1 52 1 105 54 41 41 63 55 84 55 36
0 36 9 8 110 -40 146 -52 185 -56 193 -3 5 -6 30 -8 58 -2 41 0 49 16 49 19 0
26 -15 33 -73 3 -21 8 -42 11 -46 3 -5 7 -22 9 -38 2 -15 14 -59 25 -98 12
-38 24 -80 26 -93 3 -12 14 -60 25 -106 22 -90 19 -121 -11 -113 -22 6 -22 6
-8 -30 6 -15 10 -62 10 -103 -1 -71 9 -108 38 -142 6 -7 21 -28 34 -47 12 -19
46 -48 74 -65 29 -17 59 -40 67 -51 23 -34 51 -202 37 -231 -16 -35 -14 -60 7
-80 25 -26 23 -101 -4 -123 -19 -15 -21 -25 -17 -92 2 -40 7 -90 10 -109 4
-19 8 -43 8 -52 1 -10 8 -24 15 -33 7 -8 10 -15 7 -15 -2 0 4 -33 15 -72 10
-40 21 -95 24 -123 6 -63 68 -251 94 -287 11 -15 20 -30 20 -34 0 -3 9 -18 19
-33 11 -15 23 -42 28 -61 9 -33 12 -35 64 -42 73 -9 129 -28 129 -45 0 -22
231 -241 280 -266 107 -55 214 -61 307 -17 34 16 68 30 73 30 6 0 23 8 37 17
15 10 40 23 57 28 48 16 66 58 55 130 -8 58 -7 61 21 88 17 15 32 38 36 51 3
15 21 30 47 42 84 38 41 101 -72 105 l-61 2 -65 68 c-61 63 -65 70 -65 114 0
43 -4 51 -58 108 -32 34 -64 69 -70 77 -6 8 -25 31 -42 51 -17 21 -30 48 -30
63 0 53 -80 145 -134 153 -11 2 -23 7 -26 12 -13 21 -55 31 -124 31 -81 0
-115 9 -144 38 -27 27 -201 112 -217 106 -15 -6 -55 46 -55 73 0 10 -5 24 -11
30 -5 5 -9 34 -7 63 3 50 5 54 32 57 19 3 42 -5 67 -21 21 -15 50 -26 63 -26
14 0 28 -4 31 -10 3 -5 30 -10 59 -10 28 0 57 -5 62 -10 14 -14 494 -14 508 0
5 5 29 10 53 10 l42 0 3 83 c3 73 0 88 -26 142 -36 75 -65 117 -76 110 -5 -3
-14 5 -21 17 -7 13 -15 25 -18 28 -16 12 -51 82 -45 91 8 13 -127 145 -157
154 -13 4 -42 15 -64 24 -38 18 -62 23 -150 37 -22 3 -48 10 -57 15 -9 5 -38
9 -63 9 -30 0 -57 7 -74 19 -38 27 -69 34 -181 40 -29 1 -39 8 -61 44 -67 107
-97 205 -103 335 -5 99 -5 102 16 102 12 0 51 9 87 20 36 11 78 22 93 25 45 9
82 84 85 174 1 41 7 79 12 84 12 12 51 -18 51 -40 0 -26 51 -114 90 -156 86
-92 190 -249 190 -286 0 -19 40 -91 50 -91 6 0 10 -7 10 -15 0 -8 4 -15 9 -15
5 0 14 -13 20 -28 7 -15 37 -53 67 -85 30 -31 64 -77 74 -101 21 -46 41 -61
86 -65 9 0 14 -7 11 -13 -7 -19 29 -107 51 -126 44 -38 151 -280 152 -342 0
-8 10 -24 23 -35 13 -11 33 -34 45 -52 34 -48 135 -143 153 -143 9 0 27 -8 40
-18 46 -34 121 -61 238 -86 23 -5 71 11 82 27 4 5 28 6 55 3 90 -13 139 -14
164 -4 14 5 71 11 127 12 82 2 109 7 144 25 24 13 61 24 84 25 61 5 111 24
128 50 23 35 40 105 39 165 0 53 -1 56 -59 111 -53 51 -170 120 -205 120 -41
0 -119 26 -124 42 -3 10 -15 18 -27 18 -38 0 -94 25 -138 60 -62 51 -99 88
-99 100 0 14 -80 100 -93 100 -6 0 -18 6 -26 14 -9 8 -34 17 -56 20 -48 5
-105 24 -125 41 -20 17 -97 55 -124 62 -11 3 -43 9 -71 15 -27 5 -70 14 -95
20 -25 5 -110 13 -190 17 -100 5 -154 12 -175 23 -16 8 -43 22 -60 29 -16 8
-32 25 -36 39 -4 14 -8 21 -8 15 -3 -18 -70 98 -87 149 -17 51 -58 125 -76
137 -5 3 -9 9 -9 13 3 16 -34 70 -80 116 -54 54 -79 107 -54 117 15 5 81 -1
125 -11 19 -5 33 1 57 22 17 16 51 34 75 41 69 21 104 40 156 91 28 27 59 53
70 59 43 23 127 6 172 -34 14 -12 45 -25 70 -29 24 -4 47 -10 50 -14 9 -12
109 -82 118 -82 5 0 19 -11 31 -24 15 -16 34 -24 57 -24 50 0 135 -45 183 -97
23 -25 60 -54 84 -66 23 -12 56 -32 72 -44 17 -12 58 -35 93 -50 35 -16 71
-38 80 -50 10 -12 33 -30 52 -40 36 -19 133 -46 162 -46 10 0 44 -11 77 -24
33 -12 62 -20 66 -17 3 4 9 2 13 -3 13 -18 78 -35 136 -35 31 0 66 -4 76 -10
10 -5 35 -11 56 -13 22 -2 49 -9 61 -15 28 -15 46 -15 61 0 22 22 60 25 158
13 76 -9 114 8 146 65 30 52 70 67 123 46 20 -8 42 -9 65 -4 19 5 48 11 63 13
16 3 35 12 43 20 14 13 14 17 0 37 -9 12 -16 30 -16 39 0 11 -12 20 -32 25
-18 4 -40 9 -48 11 -8 2 -33 6 -55 9 -111 14 -102 8 -97 68 3 35 -1 62 -11 82
-20 38 -79 98 -128 131 -21 14 -39 29 -39 34 0 12 -151 99 -172 99 -10 0 -18
4 -18 10 0 9 -76 27 -94 22 -5 -2 -32 2 -61 8 -28 6 -74 12 -101 14 -74 5
-162 26 -197 46 -18 10 -52 23 -77 30 -50 12 -87 28 -110 46 -28 22 -111 21
-134 -2 -9 -8 -46 -20 -83 -26 -73 -11 -125 -37 -187 -93 -21 -19 -48 -36 -60
-37 -11 0 -26 -2 -33 -2 -6 -1 -19 -8 -30 -17 -75 -62 -145 -55 -258 25 -16
11 -31 20 -32 18 -9 -8 -27 4 -76 53 -31 30 -67 57 -80 60 -29 8 -47 42 -47
90 0 49 19 172 34 220 8 27 9 53 3 80 -4 22 -11 78 -14 125 -2 47 -11 97 -19
113 -8 15 -21 40 -29 55 -8 15 -16 44 -19 65 -4 32 -1 38 17 42 12 3 135 7
272 10 138 2 367 7 511 10 230 6 262 5 273 -9 8 -9 11 -16 7 -16 -3 0 11 -33
33 -74 22 -41 45 -99 52 -130 7 -31 16 -56 20 -56 4 0 13 -17 20 -37 12 -37
146 -183 168 -183 6 0 11 -3 11 -8 0 -4 18 -18 40 -32 22 -14 40 -28 40 -31 0
-13 67 -37 136 -49 64 -11 77 -11 125 6 30 10 74 32 99 48 42 28 53 31 150 34
111 4 140 16 140 55 0 23 -41 97 -82 147 -15 19 -28 42 -28 51 0 9 -9 44 -20
78 -11 34 -19 65 -18 69 1 4 -4 26 -10 49 -14 48 -9 93 15 130 26 40 23 160
-6 206 -29 47 -87 97 -112 97 -32 0 -74 26 -103 64 -34 45 -57 57 -115 60 -51
3 -141 -19 -141 -34 0 -6 -6 -10 -13 -10 -8 0 -19 -10 -24 -23 -6 -13 -33 -35
-59 -49 -27 -14 -76 -40 -109 -57 -33 -18 -70 -41 -83 -52 -12 -10 -26 -19
-30 -19 -10 0 -63 -50 -87 -84 l-20 -27 -200 -4 c-110 -2 -246 -7 -302 -11
-123 -8 -126 -3 -52 76 52 57 65 79 74 131 3 17 12 40 19 52 8 12 17 37 21 55
4 18 19 54 33 80 21 38 26 60 26 112 0 36 -4 84 -9 108 -7 38 -6 42 12 42 12
0 27 -7 34 -17 8 -9 33 -25 56 -35 23 -10 57 -34 77 -52 19 -19 74 -53 122
-75 76 -36 96 -41 157 -41 68 0 73 -2 108 -36 46 -45 105 -56 155 -29 40 21
40 24 13 58 -29 38 -30 59 -8 121 23 67 23 73 3 132 -23 67 -33 143 -23 176 5
19 3 43 -7 70 -14 40 -13 79 4 143 8 27 -3 92 -18 105 -3 3 -11 17 -19 33 -25
48 -97 112 -167 148 -37 18 -86 49 -107 67 -21 17 -43 32 -48 32 -5 0 -9 7 -9
15 0 9 -9 28 -20 43 -11 15 -23 41 -26 57 -2 17 -16 41 -31 54 -25 22 -33 23
-137 19 -106 -3 -113 -5 -158 -36 -26 -17 -51 -32 -56 -32 -5 0 -17 -9 -26
-19 -10 -11 -30 -23 -45 -26 -15 -3 -66 -43 -114 -90 -110 -106 -165 -203
-177 -310 -9 -79 -30 -105 -84 -105 -17 0 -46 -4 -65 -10 -24 -7 -42 -6 -65 4
-34 14 -196 164 -196 181 0 24 -71 83 -107 88 -23 4 -43 15 -51 27 -7 11 -23
20 -36 20 -32 0 -53 25 -36 45 6 8 20 17 31 20 37 12 53 62 50 160 -2 86 -1
92 26 125 44 54 85 94 128 126 22 16 46 37 53 47 7 9 32 26 55 38 23 11 53 27
67 35 32 18 106 15 134 -7 11 -9 39 -19 62 -22 23 -3 58 -16 78 -27 22 -13 60
-24 98 -27 35 -3 78 -14 95 -24 58 -33 111 -40 284 -40 211 1 220 3 217 45 -3
42 8 56 42 56 16 0 42 11 58 25 34 28 87 34 96 10 5 -13 12 -11 45 11 36 23
40 31 46 79 5 33 3 61 -5 75 -6 12 -13 48 -15 81 -3 32 -11 72 -20 89 -8 16
-17 51 -20 77 -3 32 -10 52 -23 61 -10 6 -63 55 -118 108 -58 56 -120 105
-149 119 -27 14 -61 33 -75 44 -46 37 -130 51 -273 45 -121 -4 -133 -7 -185
-36 -31 -17 -77 -46 -102 -64 -26 -19 -52 -34 -57 -34 -20 0 -53 -47 -84 -120
-35 -83 -97 -261 -104 -300 -4 -24 -12 -33 -82 -90 -86 -71 -231 -198 -298
-262 -47 -44 -80 -49 -110 -14 -18 21 -179 104 -265 136 -41 15 -70 38 -70 55
0 6 -18 30 -40 52 -36 38 -43 41 -77 36 -39 -6 -63 -19 -63 -34 0 -14 -42 -59
-55 -59 -6 0 -21 -9 -33 -20 -13 -13 -40 -22 -72 -25 l-50 -5 0 32 c0 63 37
244 56 273 7 11 17 57 23 101 14 112 87 264 127 264 3 0 31 17 62 38 31 21 76
44 100 51 24 7 58 21 75 32 53 32 136 69 157 69 10 0 38 15 62 33 24 19 56 37
71 41 15 3 49 28 77 55 44 43 50 53 51 92 2 94 9 142 24 172 9 18 18 56 21 86
3 30 13 80 22 110 21 74 24 173 5 227 -8 24 -19 44 -23 44 -13 0 -27 51 -28
103 0 26 -1 58 -1 70 -1 14 -22 47 -51 78 -80 87 -86 93 -94 107 -4 6 -2 28 5
47 12 32 11 37 -6 55 -11 11 -36 21 -56 24 -31 3 -41 0 -61 -22z m-1967 -2042
c26 -25 33 -40 39 -92 3 -35 18 -88 33 -118 14 -30 29 -69 33 -85 4 -17 18
-53 31 -82 12 -28 23 -59 23 -68 0 -9 9 -19 19 -22 21 -5 35 -29 25 -45 -3 -5
2 -12 13 -14 19 -5 40 -42 46 -80 1 -12 10 -33 20 -47 9 -15 17 -31 17 -37 0
-5 5 -10 11 -10 5 0 9 -8 7 -17 -1 -10 1 -24 6 -31 4 -7 5 -16 1 -20 -3 -4
-11 1 -16 11 -6 9 -14 15 -20 12 -5 -4 -9 3 -9 14 0 12 -4 21 -10 21 -5 0 -10
7 -10 16 0 9 -9 18 -20 21 -11 3 -20 14 -20 24 0 10 -9 35 -20 54 -11 20 -18
40 -15 45 3 4 -6 15 -20 24 -14 9 -25 22 -25 28 0 6 -7 18 -15 27 -76 78 -105
112 -105 121 0 6 -4 9 -9 6 -5 -4 -11 -3 -13 1 -1 5 -18 20 -36 36 -19 15 -31
27 -27 27 3 0 -6 11 -20 25 -14 14 -25 31 -25 38 0 7 -13 37 -30 67 -16 30
-29 62 -30 72 0 15 71 82 84 79 4 -1 14 5 22 14 21 21 30 19 65 -15z m360
-320 c31 0 46 -8 86 -45 26 -25 51 -45 55 -45 5 0 30 -21 55 -46 56 -54 92
-70 152 -68 28 1 57 -6 78 -18 l33 -20 1 -306 c2 -361 3 -404 10 -417 3 -5 7
-31 8 -57 2 -43 0 -48 -18 -48 -12 0 -21 5 -21 11 0 9 -48 77 -92 128 -7 9
-11 52 -9 128 l2 114 -30 29 c-24 25 -38 30 -75 30 -45 0 -47 1 -69 48 -12 26
-24 49 -27 52 -7 7 -42 72 -81 150 -17 36 -38 72 -44 80 -12 15 -66 112 -111
200 -13 25 -26 60 -29 79 l-6 34 47 -7 c26 -3 64 -6 85 -6z m952 -363 c15 -7
27 -16 27 -20 0 -5 4 -5 10 -2 24 15 22 -51 -3 -129 -15 -45 -32 -99 -38 -121
-16 -56 -51 -135 -60 -135 -3 0 -12 -21 -20 -47 -7 -27 -25 -70 -41 -96 -15
-26 -28 -50 -28 -53 0 -3 -9 -24 -19 -47 -11 -24 -23 -55 -26 -70 -4 -15 -13
-27 -21 -27 -23 0 -21 44 4 135 6 22 13 63 16 90 3 28 13 79 22 115 9 35 17
102 19 149 2 47 9 100 16 116 6 17 13 35 15 40 5 19 13 60 13 73 1 6 10 21 22
33 21 21 33 20 92 -4z m332 -104 c3 -36 -25 -103 -44 -103 -4 0 -14 -13 -24
-29 -9 -16 -30 -43 -47 -61 -16 -18 -30 -37 -30 -43 0 -6 -3 -7 -7 -4 -6 7
-53 -55 -53 -71 0 -5 -20 -30 -45 -56 -41 -44 -75 -97 -75 -119 0 -8 -57 -67
-66 -67 -12 0 0 42 27 95 17 33 32 72 34 87 2 15 17 56 33 90 16 35 35 86 42
113 19 70 59 129 90 133 14 2 32 10 41 18 8 8 20 14 25 14 6 0 19 9 31 19 18
17 53 31 61 25 2 -1 5 -19 7 -41z m1989 28 c12 -10 48 -33 81 -50 50 -26 66
-40 93 -87 18 -31 32 -62 32 -70 0 -20 -23 -17 -53 6 -14 12 -47 30 -72 41
-55 24 -79 49 -111 112 -33 64 -16 90 30 48z m-4302 -95 c24 -8 84 -24 133
-36 50 -13 113 -34 142 -46 28 -13 54 -24 57 -24 11 0 132 -74 146 -90 8 -9
31 -27 50 -40 45 -32 74 -61 83 -83 6 -15 -1 -17 -58 -17 -37 0 -65 -4 -65
-10 0 -6 12 -20 27 -33 104 -88 117 -110 88 -154 -17 -25 -48 -29 -99 -13 -17
5 -83 19 -146 30 -63 12 -133 25 -155 30 -22 5 -54 12 -72 15 -23 5 -34 14
-44 38 -7 18 -18 37 -24 44 -5 6 -21 26 -35 44 -14 18 -30 37 -35 43 -6 6 -21
28 -34 49 -13 21 -35 49 -48 61 -19 18 -24 33 -25 74 0 62 11 114 26 124 16
11 40 10 88 -6z m2384 -143 c13 -16 24 -37 24 -47 0 -11 -44 -63 -102 -121
-57 -56 -125 -128 -153 -161 -73 -87 -174 -184 -191 -184 -11 0 -13 7 -8 28 3
15 9 46 13 70 4 23 19 57 32 76 29 40 78 101 102 127 9 10 15 19 13 19 -2 0
46 49 108 110 61 60 117 110 125 110 7 0 24 -12 37 -27z m1100 -164 c3 -5 13
-9 23 -9 23 0 35 -49 17 -70 -7 -8 -16 -23 -19 -32 -4 -10 -15 -18 -25 -18
-10 0 -28 -9 -41 -21 -26 -25 -21 -50 19 -88 38 -37 36 -81 -5 -93 -141 -42
-234 -53 -258 -29 -9 9 38 93 55 100 13 4 58 54 58 63 0 4 8 17 18 28 12 15
17 38 17 83 l0 62 43 21 c41 20 86 22 98 3z m-936 -22 c19 -13 56 -34 83 -47
65 -32 63 -56 -5 -101 -29 -19 -77 -44 -106 -55 -29 -12 -63 -29 -77 -38 -13
-9 -31 -16 -39 -16 -8 0 -16 -3 -18 -7 -1 -5 -37 -26 -78 -47 -41 -22 -119
-62 -172 -90 -77 -40 -100 -48 -109 -39 -10 10 1 27 53 78 35 36 63 65 62 65
-1 0 19 22 44 50 26 27 85 91 132 141 126 135 162 152 230 106z m200 -196 c0
-6 32 -21 72 -34 14 -5 15 -11 6 -39 -15 -49 -12 -67 16 -92 48 -41 35 -49
-61 -41 -155 13 -234 11 -245 -8 -5 -9 -20 -17 -33 -17 -13 0 -36 -5 -52 -11
-15 -6 -50 -12 -78 -14 -50 -3 -120 -23 -111 -32 10 -10 -32 -44 -65 -53 -49
-14 -69 -13 -63 4 6 15 133 113 140 109 4 -3 41 27 70 55 8 7 14 11 14 8 0 -7
102 49 155 84 22 15 62 35 90 46 27 10 65 26 83 36 31 15 62 15 62 -1z m-2435
-61 c39 -6 88 -15 110 -21 22 -5 49 -11 59 -14 36 -8 50 -32 47 -79 -3 -46 8
-75 40 -110 14 -15 19 -35 19 -83 0 -35 -1 -64 -2 -66 -2 -1 7 -13 20 -27 26
-28 28 -38 8 -46 -23 -9 -92 34 -81 50 3 3 2 4 -1 1 -4 -2 -22 9 -41 25 -18
17 -38 30 -44 30 -6 0 -25 11 -43 25 -25 19 -45 25 -85 25 -64 0 -94 -19 -115
-72 -17 -40 -13 -108 5 -108 5 0 9 -13 9 -29 0 -25 -6 -31 -34 -41 -28 -9 -39
-8 -67 9 -19 10 -52 24 -74 31 -22 7 -52 21 -67 31 -14 11 -29 19 -33 19 -4 0
-18 9 -32 20 -14 11 -35 20 -46 20 -11 0 -34 9 -51 19 -17 11 -52 25 -78 31
-28 7 -48 18 -48 26 0 8 6 14 14 14 22 0 76 56 78 81 3 24 2 24 -104 27 -121
3 -130 10 -80 63 19 21 45 33 92 44 36 9 103 25 150 37 47 12 105 23 130 24
60 2 56 1 80 26 32 34 124 41 265 18z m3218 -142 c9 -26 -3 -79 -28 -116 l-24
-37 16 -68 c9 -37 20 -67 25 -67 4 0 8 -6 8 -13 0 -7 9 -23 20 -35 12 -12 18
-22 15 -22 -10 0 24 -58 50 -86 14 -15 25 -31 25 -35 0 -10 -2 -10 -70 -15
-25 -2 -61 -7 -80 -12 -19 -4 -70 -8 -112 -7 -43 0 -78 -3 -78 -7 0 -5 -14 -8
-31 -8 -16 0 -28 4 -24 9 8 13 -7 20 -56 27 -23 3 -56 14 -73 24 -17 9 -45 16
-62 15 -29 -2 -32 0 -30 26 1 16 11 36 23 46 22 19 55 88 46 96 -5 6 27 17 60
21 63 7 150 67 197 136 14 19 32 43 40 53 8 10 16 27 16 37 3 39 4 42 19 37 8
-4 17 -2 20 3 9 15 82 12 88 -2z m-839 -530 c11 -10 27 -18 35 -19 9 0 25 -3
36 -6 11 -3 56 -9 100 -13 129 -12 142 -17 148 -54 2 -17 13 -61 23 -97 17
-63 17 -68 1 -111 -30 -77 -37 -83 -88 -70 -24 6 -62 13 -84 16 -51 5 -68 12
-134 53 -29 19 -92 48 -140 65 -93 33 -114 49 -125 91 -6 25 -43 67 -99 111
-42 33 -30 41 62 42 47 0 115 5 151 10 71 11 86 9 114 -18z m-2320 -142 c-1
-56 -3 -61 -40 -93 -21 -18 -42 -33 -46 -33 -5 0 -36 -13 -70 -28 -120 -55
-193 -82 -220 -82 -15 0 -30 -5 -33 -10 -4 -6 -11 -8 -16 -5 -5 4 -9 2 -9 -3
0 -13 -56 -35 -69 -28 -12 8 -2 77 15 93 7 7 20 13 29 13 20 0 65 47 65 69 0
20 45 73 54 64 3 -3 6 -2 6 4 0 13 44 43 69 48 9 2 37 13 61 26 50 26 116 37
170 29 l35 -5 -1 -59z m1282 -355 c4 -14 9 -33 11 -41 2 -8 5 -56 5 -106 1
-84 -1 -94 -33 -154 l-33 -63 32 -27 c18 -14 32 -31 32 -36 0 -5 16 -29 35
-53 19 -24 32 -47 30 -51 -3 -5 0 -20 6 -34 9 -19 17 -24 33 -20 17 4 24 -3
39 -36 24 -57 23 -96 -5 -103 -12 -4 -19 -9 -15 -13 13 -14 -28 -64 -65 -79
-50 -20 -65 -12 -65 33 -1 41 -12 82 -22 82 -4 0 -16 7 -26 16 -11 9 -56 34
-100 57 -102 54 -105 63 -69 212 15 61 31 114 35 120 5 5 9 21 9 36 0 15 6 42
14 60 7 19 17 43 21 54 5 11 9 22 10 25 1 3 7 18 13 33 7 15 15 40 18 55 4 15
13 39 21 54 12 24 16 26 37 16 14 -6 28 -22 32 -37z m3370 22 c5 -31 -10 -29
-25 3 -10 22 -9 25 5 22 10 -2 19 -13 20 -25z m-4331 -113 c-3 -5 1 -10 9 -10
9 0 16 -3 16 -8 0 -7 98 -76 110 -77 3 0 15 -6 27 -13 12 -7 36 -14 53 -16 17
-2 34 -6 37 -10 9 -8 -26 -72 -58 -107 -15 -16 -25 -30 -23 -31 1 -2 -15 -23
-36 -46 -21 -24 -41 -55 -45 -70 -4 -15 -20 -48 -36 -75 -16 -26 -29 -52 -29
-57 0 -6 -4 -10 -9 -10 -5 0 -14 -12 -20 -27 -17 -41 -61 -119 -61 -109 0 11
-40 -48 -60 -89 -8 -16 -28 -50 -44 -75 -17 -25 -28 -46 -26 -47 3 0 -10 -17
-28 -37 -23 -26 -41 -36 -62 -36 -35 0 -70 -27 -70 -52 0 -25 -42 -87 -60 -89
-8 -1 -22 -2 -30 -1 -61 6 -82 3 -100 -13 -11 -10 -20 -15 -20 -11 0 4 -10 -2
-22 -14 -15 -14 -35 -20 -66 -20 -65 0 -117 -29 -170 -94 -19 -24 -38 -19 -52
13 -12 31 -9 229 5 305 11 60 51 123 118 185 33 31 76 73 96 95 87 93 146 151
153 148 5 -1 8 2 8 8 0 15 36 54 260 280 175 177 214 213 238 219 2 1 0 -3 -3
-9z m2060 -24 c14 -3 89 -39 95 -46 3 -3 17 -11 33 -17 15 -7 27 -17 27 -23 0
-5 6 -10 13 -10 14 0 16 -10 16 -70 0 -61 -15 -120 -30 -120 -5 0 -9 -7 -9
-15 0 -24 -40 -64 -72 -71 -29 -6 -113 -80 -113 -100 -1 -25 -41 -84 -56 -84
-10 0 -40 22 -67 48 -46 45 -49 51 -48 98 1 27 6 48 11 47 6 -1 18 6 28 14 9
9 20 13 23 10 9 -8 54 48 54 67 0 15 21 21 63 17 14 -2 17 7 17 58 0 33 -5 63
-11 66 -6 4 -8 13 -6 19 3 7 -5 20 -17 30 -16 11 -23 28 -24 55 -2 42 -4 41
73 27z m-1885 -636 c0 -8 16 -33 35 -55 19 -22 39 -45 45 -52 19 -23 22 -62 6
-95 -8 -18 -26 -63 -40 -101 -14 -37 -33 -84 -42 -105 -9 -20 -26 -57 -36 -82
-37 -84 -63 -135 -70 -138 -5 -2 -8 -10 -8 -18 0 -18 -61 -138 -72 -142 -4 -2
-8 -8 -8 -14 0 -13 -49 -118 -55 -118 -9 0 -28 46 -32 79 -7 54 -31 145 -52
193 -10 24 -18 60 -19 82 -1 21 -8 49 -17 62 -22 34 -19 55 16 94 43 49 153
218 169 260 23 59 73 146 103 180 l28 31 24 -23 c14 -13 25 -30 25 -38z m1245
-234 c7 -9 15 -13 18 -9 7 7 8 -5 9 -119 1 -40 5 -76 11 -79 5 -4 10 -18 10
-33 0 -14 4 -26 10 -26 6 0 8 -3 4 -6 -3 -3 3 -22 13 -42 11 -19 17 -39 14
-44 -7 -10 18 -68 28 -68 5 0 8 -13 8 -28 0 -15 4 -32 9 -38 17 -17 18 -119 1
-109 -5 3 -10 2 -10 -3 0 -16 -40 -6 -61 15 -17 16 -21 33 -21 86 0 44 -4 64
-11 60 -6 -4 -8 0 -4 10 3 10 3 17 -2 17 -4 0 -6 11 -3 25 2 15 0 25 -7 25 -6
0 -10 3 -10 8 4 22 -2 42 -11 37 -9 -6 -15 35 -11 78 1 9 -3 17 -8 17 -6 0
-11 9 -11 19 0 11 -4 23 -10 26 -5 3 -10 16 -10 29 0 12 -5 27 -10 32 -10 10
-14 48 -11 111 1 31 3 32 33 29 17 -2 37 -11 43 -20z m-1021 -85 c10 -10 18
-32 18 -48 2 -54 -69 -267 -138 -418 -12 -27 -26 -62 -29 -77 -4 -15 -16 -30
-26 -33 -10 -4 -19 -13 -19 -21 0 -8 -9 -23 -19 -33 -11 -11 -25 -38 -32 -60
-15 -50 -43 -81 -73 -81 -19 0 -28 -9 -41 -42 -20 -51 -46 -78 -75 -78 -18 0
-20 5 -16 38 10 77 109 342 128 342 4 0 8 6 8 13 0 6 15 26 33 44 36 34 107
163 127 228 6 22 20 58 30 80 10 23 20 50 22 60 1 11 7 25 11 30 5 6 17 25 27
43 22 37 39 40 64 13z"/>
</g>
</svg>
